<svg id="Capa_1" enable-background="new 0 0 512 512" height="512" viewBox="0 0 512 512" width="512" xmlns="http://www.w3.org/2000/svg"><g><path d="m503.172 220.69c-4.879 0-8.828 3.953-8.828 8.828v8.828c0 4.875-3.952 8.828-8.828 8.828s-8.828-3.953-8.828-8.828l-17.655-35.31c0 4.875-3.952 8.828-8.828 8.828s-8.828-3.953-8.828-8.828l-17.655 8.828c0 4.875-3.952 8.828-8.828 8.828s-8.828-3.953-8.828-8.828l-17.655-52.966c0 4.875-3.952 8.828-8.828 8.828s-8.828-3.953-8.828-8.828h-17.655c0 4.875-3.952 8.828-8.828 8.828s-8.828-3.953-8.828-8.828l-17.655-44.138c0 4.875-3.952 8.828-8.828 8.828s-8.828-3.953-8.828-8.828l-17.655-17.655c0 4.875-3.952 8.828-8.828 8.828s-8.828-3.953-8.828-8.828l-17.655-26.483c0 4.875-3.952 8.828-8.828 8.828s-8.828-3.953-8.828-8.828l-17.655 88.276c0 4.875-3.952 8.828-8.828 8.828s-8.828-3.953-8.828-8.828l-17.655-8.828c0 4.875-3.952 8.828-8.828 8.828s-8.828-3.953-8.828-8.828l-17.655 52.966c0 4.875-3.952 8.828-8.828 8.828s-8.828-3.953-8.828-8.828l-17.655-8.828c0 4.875-3.952 8.828-8.828 8.828s-8.828-3.953-8.828-8.828l-17.655 17.655c0 4.875-3.952 8.828-8.828 8.828s-8.828-3.953-8.828-8.828l-17.646 26.482c0 4.875-3.952 8.828-8.828 8.828s-8.828-3.953-8.828-8.828-3.948-8.828-8.828-8.828-8.826 3.953-8.826 8.828v35.31c0 4.875 3.948 8.828 8.828 8.828s8.828-3.953 8.828-8.828c0-4.876 3.952-8.828 8.828-8.828s8.828 3.952 8.828 8.828l17.655 26.483c0-4.876 3.952-8.828 8.828-8.828s8.828 3.952 8.828 8.828l17.655 17.655c0-4.876 3.952-8.828 8.828-8.828s8.828 3.952 8.828 8.828l17.655-8.828c0-4.876 3.952-8.828 8.828-8.828s8.828 3.952 8.828 8.828l17.655 52.966c0-4.876 3.952-8.828 8.828-8.828s8.828 3.952 8.828 8.828l17.655-8.828c0-4.876 3.952-8.828 8.828-8.828s8.828 3.952 8.828 8.828l17.655 88.276c0-4.876 3.952-8.828 8.828-8.828s8.828 3.952 8.828 8.828l17.655-26.483c0-4.876 3.952-8.828 8.828-8.828s8.828 3.952 8.828 8.828l17.655-17.655c0-4.876 3.952-8.828 8.828-8.828s8.828 3.952 8.828 8.828l17.655-44.138c0-4.876 3.952-8.828 8.828-8.828s8.828 3.952 8.828 8.828h17.655c0-4.876 3.952-8.828 8.828-8.828s8.828 3.952 8.828 8.828l17.655-52.966c0-4.876 3.952-8.828 8.828-8.828s8.828 3.952 8.828 8.828l17.655 8.828c0-4.876 3.952-8.828 8.828-8.828s8.828 3.952 8.828 8.828l17.655-35.31c0-4.876 3.952-8.828 8.828-8.828s8.828 3.952 8.828 8.828v8.828c0 4.875 3.948 8.828 8.828 8.828 4.879 0 8.828-3.953 8.828-8.828v-52.966c-.011-4.875-3.959-8.827-8.839-8.827z" fill="#dbf4be"/><g><path d="m256 494.345c-4.879 0-8.828-3.953-8.828-8.828v-459.034c0-4.875 3.948-8.828 8.828-8.828s8.828 3.953 8.828 8.828v459.034c0 4.875-3.949 8.828-8.828 8.828z" fill="#52bd7e"/></g><g><path d="m291.31 423.724c-4.879 0-8.828-3.953-8.828-8.828v-317.793c0-4.875 3.948-8.828 8.828-8.828 4.879 0 8.828 3.953 8.828 8.828v317.793c0 4.876-3.948 8.828-8.828 8.828z" fill="#98db7c"/></g><g><path d="m326.621 450.207c-4.879 0-8.828-3.953-8.828-8.828v-370.758c0-4.875 3.948-8.828 8.828-8.828s8.828 3.953 8.828 8.828v370.759c-.001 4.874-3.949 8.827-8.828 8.827z" fill="#77cc7d"/></g><g><path d="m150.069 423.724c-4.879 0-8.828-3.953-8.828-8.828v-317.793c0-4.875 3.948-8.828 8.828-8.828 4.879 0 8.828 3.953 8.828 8.828v317.793c0 4.876-3.949 8.828-8.828 8.828z" fill="#98db7c"/></g><g><path d="m361.931 370.759c-4.879 0-8.828-3.953-8.828-8.828v-211.862c0-4.875 3.948-8.828 8.828-8.828s8.828 3.953 8.828 8.828v211.862c0 4.875-3.949 8.828-8.828 8.828z" fill="#b8eb7c"/></g><g><path d="m185.379 370.759c-4.879 0-8.828-3.953-8.828-8.828v-211.862c0-4.875 3.948-8.828 8.828-8.828 4.879 0 8.828 3.953 8.828 8.828v211.862c0 4.875-3.948 8.828-8.828 8.828z" fill="#b8eb7c"/></g><g><path d="m79.448 361.931c-4.879 0-8.828-3.953-8.828-8.828v-194.206c0-4.875 3.948-8.828 8.828-8.828s8.828 3.953 8.828 8.828v194.207c0 4.874-3.948 8.827-8.828 8.827z" fill="#b8eb7c"/></g><g><path d="m397.241 406.069c-4.879 0-8.828-3.953-8.828-8.828v-282.482c0-4.875 3.948-8.828 8.828-8.828 4.879 0 8.828 3.953 8.828 8.828v282.483c0 4.874-3.948 8.827-8.828 8.827z" fill="#98db7c"/></g><g><path d="m432.552 317.793c-4.879 0-8.828-3.953-8.828-8.828v-105.931c0-4.875 3.948-8.828 8.828-8.828s8.828 3.953 8.828 8.828v105.931c-.001 4.876-3.949 8.828-8.828 8.828z" fill="#c7ee97"/></g><g><path d="m114.759 326.621c-4.879 0-8.828-3.953-8.828-8.828v-123.586c0-4.875 3.948-8.828 8.828-8.828s8.828 3.953 8.828 8.828v123.586c-.001 4.875-3.949 8.828-8.828 8.828z" fill="#c7ee97"/></g><g><path d="m44.138 308.966c-4.879 0-8.828-3.953-8.828-8.828v-88.276c0-4.875 3.948-8.828 8.828-8.828s8.828 3.953 8.828 8.828v88.276c0 4.875-3.949 8.828-8.828 8.828z" fill="#c7ee97"/></g><g><path d="m467.862 353.103c-4.879 0-8.828-3.953-8.828-8.828v-176.551c0-4.875 3.948-8.828 8.828-8.828 4.879 0 8.828 3.953 8.828 8.828v176.552c0 4.875-3.949 8.827-8.828 8.827z" fill="#b8eb7c"/></g><g><path d="m220.69 450.207c-4.879 0-8.828-3.953-8.828-8.828v-370.758c0-4.875 3.948-8.828 8.828-8.828 4.879 0 8.828 3.953 8.828 8.828v370.759c-.001 4.874-3.949 8.827-8.828 8.827z" fill="#77cc7d"/></g></g></svg>