<?xml version="1.0"?>
<svg xmlns="http://www.w3.org/2000/svg" xmlns:xlink="http://www.w3.org/1999/xlink" xmlns:svgjs="http://svgjs.com/svgjs" version="1.1" width="512" height="512" x="0" y="0" viewBox="0 0 513.124 513.124" style="enable-background:new 0 0 512 512" xml:space="preserve"><g><g xmlns="http://www.w3.org/2000/svg"><path d="m503.685 29.49h-64.92c-5.213 0-9.439 4.326-9.439 9.663v27.841h83.799v-27.842c-.001-5.336-4.227-9.662-9.44-9.662z" fill="#ffffff" data-original="#000000" style=""/><path d="m385.852 75.652h-64.919c-5.213 0-9.439 4.326-9.439 9.663v48.474h83.798v-48.474c-.001-5.337-4.227-9.663-9.44-9.663z" fill="#ffffff" data-original="#000000" style=""/><path d="m429.325 101.832h83.799v338.833h-83.799z" fill="#ffffff" data-original="#000000" style=""/><path d="m311.493 168.628h83.798v343.63h-83.798z" fill="#ffffff" data-original="#000000" style=""/><path d="m429.325 475.504h83.799v36.754h-83.799z" fill="#ffffff" data-original="#000000" style=""/><path d="m97.647 97.062h-88.208c-5.213 0-9.439 4.326-9.439 9.663v36.444h107.086v-36.444c0-5.337-4.226-9.663-9.439-9.663z" fill="#ffffff" data-original="#000000" style=""/><path d="m0 178.007h107.086v334.251h-107.086z" fill="#ffffff" data-original="#000000" style=""/><path d="m141.12 431.634h136.34v80.624h-136.34z" fill="#ffffff" data-original="#000000" style=""/><path d="m141.12 116.749h136.34v280.047h-136.34z" fill="#ffffff" data-original="#000000" style=""/><path d="m268.021.867h-117.462c-5.213 0-9.439 4.326-9.439 9.663v71.381h136.34v-71.382c0-5.336-4.226-9.662-9.439-9.662z" fill="#ffffff" data-original="#000000" style=""/></g></g></svg>
