<svg id="Capa_1" enable-background="new 0 0 512 512" height="512" viewBox="0 0 512 512" width="512" xmlns="http://www.w3.org/2000/svg"><g><path d="m312 0c-110.28 0-200 89.72-200 200s89.72 200 200 200 200-89.72 200-200-89.72-200-200-200zm0 360c-88.224 0-160-71.776-160-160s71.776-160 160-160 160 71.776 160 160-71.776 160-160 160z"/><path d="m114.098 369.618-108.24 108.24c-7.811 7.811-7.811 20.474 0 28.284 7.81 7.81 20.473 7.811 28.284 0l108.24-108.24c7.811-7.811 7.811-20.474 0-28.284s-20.473-7.811-28.284 0z"/><circle cx="312" cy="300" r="20"/><path d="m312 80c-33.084 0-60 26.916-60 60 0 11.046 8.954 20 20 20s20-8.954 20-20c0-11.028 8.972-20 20-20s20 8.972 20 20c0 7.455-4.105 14.246-10.713 17.723-18.065 9.505-29.287 29.186-29.287 51.364v10.913c0 11.046 8.954 20 20 20s20-8.954 20-20v-10.913c0-7.059 3.18-13.476 7.912-15.965 19.793-10.414 32.088-30.769 32.088-53.122 0-33.084-26.916-60-60-60z"/></g></svg>